<?xml version="1.0" encoding="UTF-8"?>
<svg version="1.1" xmlns="http://www.w3.org/2000/svg" width="192" height="192">
<path d="M0 0 C63.36 0 126.72 0 192 0 C192 63.36 192 126.72 192 192 C128.64 192 65.28 192 0 192 C0 128.64 0 65.28 0 0 Z " fill="#040918" transform="translate(0,0)"/>
<path d="M0 0 C1.53333984 0.00580078 1.53333984 0.00580078 3.09765625 0.01171875 C5.91090161 0.30968284 7.48502729 0.99810286 9.9375 2.3125 C12.59241264 1.99643897 14.54955246 1.50647377 16.9375 0.3125 C23.47326377 -0.39135148 29.76439107 -0.68347073 35.11621094 3.57202148 C41.26059123 9.44377579 42.39586786 16.50310476 42.6015625 24.64453125 C42.62697831 27.24914736 42.62061683 29.85028167 42.58935547 32.45483398 C42.56237611 35.13731842 42.58928031 37.81568422 42.62109375 40.49804688 C42.61779245 42.21355084 42.61139202 43.92905227 42.6015625 45.64453125 C42.61168365 46.44043167 42.62180481 47.23633209 42.63223267 48.05635071 C42.54331165 52.27737191 42.26148744 53.89176209 39.59521484 57.35424805 C36.9375 59.3125 36.9375 59.3125 33.75 59.3125 C30.9375 58.3125 30.9375 58.3125 28.9375 55.3125 C28.72019245 52.43853374 28.61249914 49.65324329 28.59375 46.77734375 C28.5791272 45.94288223 28.56450439 45.10842072 28.54943848 44.24867249 C28.48713392 40.67724765 28.44749861 37.10565042 28.40576172 33.53393555 C28.37209822 30.92738479 28.32697538 28.3212062 28.28125 25.71484375 C28.2759729 24.90337387 28.2706958 24.09190399 28.26525879 23.25584412 C28.3656414 18.8134857 28.3656414 18.8134857 25.9375 15.3125 C22.9375 14.97916667 22.9375 14.97916667 19.9375 15.3125 C16.89814142 18.35185858 17.63937538 21.85686676 17.62890625 25.93359375 C17.6037488 27.69075856 17.57835074 29.44791994 17.55273438 31.20507812 C17.52396253 33.98119236 17.49995105 36.75724705 17.48120117 39.53344727 C17.45958544 42.20881019 17.42015099 44.88347212 17.37890625 47.55859375 C17.37879044 48.38991318 17.37867462 49.2212326 17.3785553 50.07774353 C17.27890629 55.86095987 17.27890629 55.86095987 15.60777283 58.07118225 C13.9375 59.3125 13.9375 59.3125 10.8125 59.0625 C7.9375 58.3125 7.9375 58.3125 6.9375 57.3125 C6.80193131 54.46498546 6.72687622 51.63832946 6.69140625 48.7890625 C6.65846647 47.02864089 6.62525485 45.26822434 6.59179688 43.5078125 C6.54436255 40.72073889 6.49994628 37.93368567 6.46069336 35.14648438 C6.42101662 32.46462174 6.36945781 29.78318917 6.31640625 27.1015625 C6.3079921 26.26710602 6.29957794 25.43264954 6.29090881 24.57290649 C6.20722334 20.66392122 6.15294805 18.63567208 3.9375 15.3125 C0.9375 14.8125 0.9375 14.8125 -2.0625 15.3125 C-4.62700272 19.15925407 -4.35925529 22.35210199 -4.37109375 26.8125 C-4.39624615 28.52083686 -4.42164428 30.22917011 -4.44726562 31.9375 C-4.47605271 34.63019946 -4.50007189 37.32283655 -4.51879883 40.015625 C-4.54041201 42.61490682 -4.579839 45.21346674 -4.62109375 47.8125 C-4.62120956 48.61880859 -4.62132538 49.42511719 -4.6214447 50.25585938 C-4.72090986 55.85504543 -4.72090986 55.85504543 -6.36488342 58.05664062 C-8.0625 59.3125 -8.0625 59.3125 -11.625 59.1875 C-15.0625 58.3125 -15.0625 58.3125 -17.0625 55.3125 C-17.34338379 53.37985229 -17.34338379 53.37985229 -17.38476562 51.16748047 C-17.40398071 50.33586395 -17.4231958 49.50424744 -17.44299316 48.64743042 C-17.45149292 47.75057526 -17.45999268 46.85372009 -17.46875 45.9296875 C-17.48015015 45.00084747 -17.49155029 44.07200745 -17.5032959 43.11502075 C-17.5221947 41.14638826 -17.53526343 39.1776925 -17.54296875 37.20898438 C-17.56229702 34.21890156 -17.6242943 31.23161971 -17.6875 28.2421875 C-17.70056967 26.32553709 -17.71106684 24.40886707 -17.71875 22.4921875 C-17.7434436 21.60747772 -17.76813721 20.72276794 -17.7935791 19.81124878 C-17.74492926 12.91741957 -15.49669022 8.54836519 -11.0625 3.3125 C-7.40581928 0.31962987 -4.67211748 -0.07678575 0 0 Z " fill="#4E5CF6" transform="translate(111.0625,82.6875)"/>
<path d="M0 0 C2.8100346 1.79363911 4.50940468 3.01880935 6 6 C6.1140307 8.71939275 6.16784124 11.41376456 6.17700195 14.1340332 C6.18357315 14.97485443 6.19014435 15.81567566 6.19691467 16.68197632 C6.21666632 19.47157881 6.22831426 22.26112744 6.23828125 25.05078125 C6.24235678 26.00253927 6.2464323 26.95429729 6.25063133 27.93489647 C6.2714998 32.97213907 6.28579829 38.00935436 6.29516602 43.04663086 C6.30623351 48.25221101 6.34063513 53.45736406 6.38033772 58.66279316 C6.40647038 62.66308899 6.41485486 66.66328254 6.41844749 70.66365623 C6.42332195 72.58261182 6.43496029 74.50156259 6.45348549 76.42043495 C6.47780634 79.10656293 6.47692498 81.79157906 6.4699707 84.4777832 C6.48278076 85.27017899 6.49559082 86.06257477 6.50878906 86.87898254 C6.4733692 90.63333393 6.14239154 92.77792031 4.09562683 95.97013855 C0.88459636 99.08039981 -1.4802762 99.39196163 -5.9609375 99.359375 C-9.38006698 98.7567698 -10.93189052 96.63213933 -13 94 C-14.57056206 90.85887589 -14.15618816 87.49871969 -14.16113281 84.04956055 C-14.16609772 83.22824646 -14.17106262 82.40693237 -14.17617798 81.56072998 C-14.19081612 78.83605113 -14.1976047 76.11143051 -14.203125 73.38671875 C-14.20887555 71.49583433 -14.21463329 69.60494993 -14.22039795 67.71406555 C-14.23091295 63.74532804 -14.2367522 59.77661082 -14.24023438 55.80786133 C-14.24571701 50.72342484 -14.26973802 45.63925643 -14.29820633 40.55490398 C-14.31683533 36.64725463 -14.32203847 32.73966977 -14.32357025 28.83197975 C-14.32659724 26.95769601 -14.33462732 25.08341341 -14.34775543 23.2091732 C-14.36481975 20.58544955 -14.3629347 17.96237975 -14.35644531 15.33862305 C-14.3656601 14.56492874 -14.37487488 13.79123444 -14.3843689 12.99409485 C-14.34942225 8.48117507 -13.82370124 5.56745461 -11 2 C-7.31502204 -0.45665197 -4.28028214 -0.70086491 0 0 Z " fill="#3978F9" transform="translate(54,46)"/>
<path d="M0 0 C3.69290992 0.92322748 5.11785208 2.69427962 7.5 5.625 C7.99627402 8.3535649 8.18664519 10.46063787 8.14697266 13.18164062 C8.15573425 13.92536423 8.16449585 14.66908783 8.17352295 15.43534851 C8.19546256 17.88458243 8.18098541 20.33199895 8.1640625 22.78125 C8.16743224 24.48848821 8.17228619 26.19572408 8.17855835 27.9029541 C8.18592224 31.47736499 8.17524028 35.05115024 8.15185547 38.62548828 C8.12336733 43.2024134 8.13977398 47.7778726 8.16971779 52.35474396 C8.18780421 55.87903853 8.18202671 59.40298675 8.16907883 62.92729187 C8.1657485 64.61455968 8.1698188 66.30185915 8.18147659 67.98908997 C8.19420838 70.34969091 8.17478016 72.70793369 8.14697266 75.06835938 C8.15709381 75.76253464 8.16721497 76.4567099 8.17764282 77.17192078 C8.09480957 80.97624494 7.55783993 82.55267924 5.15097046 85.56213379 C2.5 87.625 2.5 87.625 -0.5625 88.1875 C-4.25399154 87.48061864 -5.2369844 86.60497478 -7.5 83.625 C-7.90007077 80.9753807 -8.05788745 78.73834058 -8.03344727 76.09008789 C-8.04206284 75.33675674 -8.05067841 74.5834256 -8.05955505 73.80726624 C-8.08223271 71.32037869 -8.07547308 68.83461647 -8.06640625 66.34765625 C-8.07164137 64.61656866 -8.07791744 62.88548392 -8.08518982 61.15440369 C-8.09559753 57.52703425 -8.09102786 53.90005699 -8.07641602 50.27270508 C-8.05923422 45.62741802 -8.08271319 40.98336857 -8.11790562 36.33821964 C-8.1398827 32.76333949 -8.13843735 29.18875527 -8.1301403 25.61382866 C-8.12932082 23.90142904 -8.13618383 22.1890077 -8.15091133 20.47667122 C-8.1683625 18.08011315 -8.15381288 15.68577596 -8.13110352 13.28930664 C-8.14279572 12.58420959 -8.15448792 11.87911255 -8.16653442 11.15264893 C-8.09230827 7.2964627 -7.5779414 5.7211501 -5.11680603 2.68504333 C-2.5 0.625 -2.5 0.625 0 0 Z " fill="#3B74F1" transform="translate(79.5,54.375)"/>
<path d="M0 0 C1.53333984 0.00580078 1.53333984 0.00580078 3.09765625 0.01171875 C5.91090161 0.30968284 7.48502729 0.99810286 9.9375 2.3125 C12.59241264 1.99643897 14.54955246 1.50647377 16.9375 0.3125 C24.12607954 -0.46165472 29.53058653 -0.21164991 35.51171875 4.0234375 C36.9375 5.3125 36.9375 5.3125 37.9375 7.3125 C35.9575 6.6525 33.9775 5.9925 31.9375 5.3125 C31.9375 4.6525 31.9375 3.9925 31.9375 3.3125 C23.2632025 2.06172825 23.2632025 2.06172825 14.9375 4.3125 C14.6075 4.6425 14.2775 4.9725 13.9375 5.3125 C12.47376953 5.16941406 12.47376953 5.16941406 10.98046875 5.0234375 C2.7264985 4.26361411 2.7264985 4.26361411 -4.65625 7.51171875 C-5.75496987 8.43632454 -6.82883934 9.3913186 -7.875 10.375 C-8.37169189 10.84019043 -8.86838379 11.30538086 -9.38012695 11.78466797 C-15.30458954 17.91629416 -15.39415627 25.21360399 -15.6875 33.25 C-15.72617188 34.12462891 -15.76484375 34.99925781 -15.8046875 35.90039062 C-15.8981107 38.03744631 -15.98135398 40.17494294 -16.0625 42.3125 C-16.3925 42.3125 -16.7225 42.3125 -17.0625 42.3125 C-17.21227605 38.2051799 -17.32037183 34.09894433 -17.39208984 29.98950195 C-17.4220233 28.59566518 -17.46278771 27.20201287 -17.51513672 25.80883789 C-17.80429817 17.90792636 -17.86084368 11.38771992 -12.69360352 4.96728516 C-8.68123391 0.89666082 -5.67595407 -0.0932837 0 0 Z " fill="#2694F1" transform="translate(111.0625,82.6875)"/>
<path d="M0 0 C2.8100346 1.79363911 4.50940468 3.01880935 6 6 C6.08675538 8.69893181 6.11557897 11.37169231 6.09765625 14.0703125 C6.0962413 14.86654022 6.09482635 15.66276794 6.09336853 16.48312378 C6.08776345 19.0304538 6.07521014 21.57769647 6.0625 24.125 C6.05748565 25.85025915 6.05292263 27.57551967 6.04882812 29.30078125 C6.03779237 33.53388791 6.02052436 37.76692914 6 42 C5.67 42 5.34 42 5 42 C4.505 23.685 4.505 23.685 4 5 C3.34 5 2.68 5 2 5 C1.67 4.34 1.34 3.68 1 3 C-0.80878457 2.08517443 -0.80878457 2.08517443 -3 2 C-6.40103324 3.65782338 -8.79131219 5.94610801 -11 9 C-11.87588131 12.81341938 -11.63237435 16.3705639 -11.3125 20.25 C-11.19141926 22.21278249 -11.08276716 24.17638264 -10.98828125 26.140625 C-10.92165283 27.00204102 -10.85502441 27.86345703 -10.78637695 28.75097656 C-11 31 -11 31 -12.50073242 32.80371094 C-13.24286987 33.39587402 -13.24286987 33.39587402 -14 34 C-14.0872253 29.60429206 -14.14046869 25.20880729 -14.1875 20.8125 C-14.21263672 19.56662109 -14.23777344 18.32074219 -14.26367188 17.03710938 C-14.27333984 15.83505859 -14.28300781 14.63300781 -14.29296875 13.39453125 C-14.3086792 12.28956299 -14.32438965 11.18459473 -14.34057617 10.04614258 C-13.95350902 6.58418065 -13.07864349 4.77122062 -11 2 C-7.31502204 -0.45665197 -4.28028214 -0.70086491 0 0 Z " fill="#07D1F3" transform="translate(54,46)"/>
<path d="M0 0 C2.375 0.4375 2.375 0.4375 5.375 2.4375 C4.375 4.4375 4.375 4.4375 1 5.75 C-3.12005967 7.66795881 -3.86918175 8.34772821 -5.625 12.4375 C-5.95314744 15.59472085 -5.86220829 18.70633554 -5.75 21.875 C-5.60979848 27.20678117 -5.51397841 32.18151327 -6.625 37.4375 C-6.955 37.4375 -7.285 37.4375 -7.625 37.4375 C-7.74897147 32.97185699 -7.83950992 28.50713561 -7.8996582 24.0402832 C-7.92474109 22.52220199 -7.9588166 21.00424082 -8.00219727 19.48657227 C-8.06313293 17.29934035 -8.09126895 15.11370961 -8.11328125 12.92578125 C-8.13946533 11.61134033 -8.16564941 10.29689941 -8.19262695 8.94262695 C-7.40124029 4.05577174 -5.04615471 0.84102578 0 0 Z " fill="#11C7F7" transform="translate(79.625,54.5625)"/>
<path d="M0 0 C0.33 0 0.66 0 1 0 C1.16774403 2.77077198 1.33423936 5.54160927 1.5 8.3125 C1.54769531 9.09818359 1.59539062 9.88386719 1.64453125 10.69335938 C1.68964844 11.45068359 1.73476562 12.20800781 1.78125 12.98828125 C1.82314453 13.68477783 1.86503906 14.38127441 1.90820312 15.09887695 C1.98700971 16.73096966 2 18.36600579 2 20 C2.31088368 21.67099977 2.64080332 23.33871537 3 25 C6.465 24.505 6.465 24.505 10 24 C11.91626837 19.01770224 12.5547115 14.27315333 13 9 C13.33 9 13.66 9 14 9 C14.10787818 11.77186988 14.18723327 14.53955537 14.25 17.3125 C14.30027344 18.49102539 14.30027344 18.49102539 14.3515625 19.69335938 C14.45045585 25.50334355 14.45045585 25.50334355 12.171875 28.015625 C9.19582549 29.36448197 7.23184075 29.47131011 4 29 C1.23862782 26.87941576 0.12000079 25.72645641 -0.45410156 22.25097656 C-0.4331543 21.22456055 -0.41220703 20.19814453 -0.390625 19.140625 C-0.37773438 18.02558594 -0.36484375 16.91054687 -0.3515625 15.76171875 C-0.31804687 14.60285156 -0.28453125 13.44398437 -0.25 12.25 C-0.23195313 11.07566406 -0.21390625 9.90132812 -0.1953125 8.69140625 C-0.1481912 5.7934466 -0.08241305 2.89713582 0 0 Z " fill="#9E4AF6" transform="translate(72,113)"/>
<path d="M0 0 C0.33 0 0.66 0 1 0 C1.06058594 1.16917969 1.12117188 2.33835937 1.18359375 3.54296875 C1.26804034 5.09115614 1.35268625 6.63933268 1.4375 8.1875 C1.47681641 8.95642578 1.51613281 9.72535156 1.55664062 10.51757812 C1.77589893 14.44736154 2.19353056 18.14046767 3 22 C2.5625 24.3125 2.5625 24.3125 2 26 C3.98 25.67 5.96 25.34 8 25 C8.33 18.73 8.66 12.46 9 6 C9.33 6 9.66 6 10 6 C10.08706892 9.27066566 10.14041241 12.54103365 10.1875 15.8125 C10.22520508 17.2056543 10.22520508 17.2056543 10.26367188 18.62695312 C10.27817383 19.9659668 10.27817383 19.9659668 10.29296875 21.33203125 C10.31653442 22.56530151 10.31653442 22.56530151 10.34057617 23.82348633 C10 26 10 26 8.67700195 27.80737305 C7 29 7 29 3.875 28.75 C1 28 1 28 0 27 C-0.08758003 25.00035018 -0.10696576 22.9976389 -0.09765625 20.99609375 C-0.09443359 19.78115234 -0.09121094 18.56621094 -0.08789062 17.31445312 C-0.07951172 16.03505859 -0.07113281 14.75566406 -0.0625 13.4375 C-0.05798828 12.15423828 -0.05347656 10.87097656 -0.04882812 9.54882812 C-0.03699545 6.36583978 -0.02051068 3.18294238 0 0 Z " fill="#9544E9" transform="translate(118,113)"/>
<path d="M0 0 C1.04542969 0.00386719 2.09085938 0.00773437 3.16796875 0.01171875 C5.8125 0.3125 5.8125 0.3125 7.8125 2.3125 C6.513125 2.374375 5.21375 2.43625 3.875 2.5 C-2.09912814 3.15120828 -7.58005018 5.65514684 -11.8203125 9.9765625 C-13.1875 11.3125 -13.1875 11.3125 -15.1875 11.3125 C-15.5175 12.6325 -15.8475 13.9525 -16.1875 15.3125 C-15.77302254 10.02791239 -14.96512551 7.09012551 -11.1875 3.3125 C-7.35023066 0.55259224 -4.70548295 -0.07598917 0 0 Z " fill="#0DB0F3" transform="translate(111.1875,82.6875)"/>
<path d="M0 0 C0.33 0 0.66 0 1 0 C1.0809723 2.43816585 1.14046972 4.87364384 1.1875 7.3125 C1.22520508 8.34793945 1.22520508 8.34793945 1.26367188 9.40429688 C1.33723058 14.47984738 1.33723058 14.47984738 -0.2890625 16.98828125 C-3.27046549 18.75125699 -5.78825073 17.81753618 -9 17 C-11.42130331 13.36804504 -11.21022785 11.61650652 -11.125 7.3125 C-11.09792969 5.54326172 -11.09792969 5.54326172 -11.0703125 3.73828125 C-11.04710938 2.83464844 -11.02390625 1.93101563 -11 1 C-10.67 1 -10.34 1 -10 1 C-10 4.63 -10 8.26 -10 12 C-9.01 12 -8.02 12 -7 12 C-7 12.66 -7 13.32 -7 14 C-4.13275314 13.42655063 -3.1385485 13.1385485 -1 11 C-0.53709779 8.33757179 -0.53709779 8.33757179 -0.375 5.375 C-0.30023438 4.37210938 -0.22546875 3.36921875 -0.1484375 2.3359375 C-0.09945312 1.56507812 -0.05046875 0.79421875 0 0 Z " fill="#9447F4" transform="translate(105,124)"/>
<path d="M0 0 C0.33 0 0.66 0 1 0 C1.06058594 0.69867188 1.12117187 1.39734375 1.18359375 2.1171875 C1.26738281 3.02726562 1.35117188 3.93734375 1.4375 4.875 C1.51871094 5.77992187 1.59992188 6.68484375 1.68359375 7.6171875 C1.86989285 10.01110861 1.86989285 10.01110861 3 12 C2.82563854 14.25798093 2.48590691 16.47076897 2.15625 18.7109375 C1.99592022 21.05976885 2.30600927 22.76494162 3 25 C5.41619823 25.25030977 5.41619823 25.25030977 8 25 C9.9451 22.08235 10.45276317 20.37462715 11 17 C11.33 17 11.66 17 12 17 C12.48428405 24.38533178 12.48428405 24.38533178 10.375 27.0625 C7.16733041 28.32868536 5.2708979 27.99549067 2 27 C-0.26598448 23.60102327 -0.23742654 22.43680827 -0.1953125 18.45703125 C-0.18886719 17.38388672 -0.18242187 16.31074219 -0.17578125 15.20507812 C-0.15064453 13.52575195 -0.15064453 13.52575195 -0.125 11.8125 C-0.11597656 10.68134766 -0.10695312 9.55019531 -0.09765625 8.38476562 C-0.07406862 5.58963172 -0.041153 2.79492155 0 0 Z " fill="#8855E3" transform="translate(140,114)"/>
<path d="M0 0 C0.99 0.495 0.99 0.495 2 1 C2.43073011 4.0151108 2.74819567 6.96935499 3 10 C3.1849288 11.85442488 3.37235667 13.70860254 3.5625 15.5625 C3.70883578 17.04161704 3.85485591 18.52076554 4 20 C4.99 20.33 5.98 20.66 7 21 C7 21.66 7 22.32 7 23 C9.31 23 11.62 23 14 23 C14 23.33 14 23.66 14 24 C6.75898264 24.61364554 6.75898264 24.61364554 3.0625 21.625 C-0.40502658 17.21178436 -0.11980601 13.80584635 -0.0625 8.375 C-0.05798828 7.57320312 -0.05347656 6.77140625 -0.04882812 5.9453125 C-0.03703168 3.96350994 -0.01909605 1.98174567 0 0 Z " fill="#7E5EED" transform="translate(40,121)"/>
<path d="M0 0 C1.2375 0.7425 1.2375 0.7425 2.5 1.5 C2.5 1.83 2.5 2.16 2.5 2.5 C-4.76 2.5 -12.02 2.5 -19.5 2.5 C-14.30093735 -2.69906265 -6.38975563 -2.7384667 0 0 Z " fill="#000000" transform="translate(111.5,189.5)"/>
<path d="M0 0 C0.33 0 0.66 0 1 0 C1.09917794 4.46567763 1.17161225 8.93076507 1.21972656 13.3972168 C1.23979203 14.9152341 1.26705134 16.43317459 1.30175781 17.95092773 C1.35050393 20.13805122 1.37301805 22.32414952 1.390625 24.51171875 C1.41157227 25.82615967 1.43251953 27.14060059 1.45410156 28.49487305 C0.93073155 32.53467048 -0.09836085 34.19312614 -3 37 C-3.66 37 -4.32 37 -5 37 C-4 35 -3 33 -2 31 C-1.34 31 -0.68 31 0 31 C0 20.77 0 10.54 0 0 Z " fill="#715EFF" transform="translate(59,107)"/>
<path d="M0 0 C3.72111134 1.53660684 7.15775359 3.31550717 9 7 C7.02 6.34 5.04 5.68 3 5 C3 4.34 3 3.68 3 3 C-4.22533204 2.00060828 -9.95664616 2.03709811 -17 4 C-12.10865453 -1.11367936 -6.82955072 -0.78441781 0 0 Z " fill="#3998EA" transform="translate(140,83)"/>
<path d="M0 0 C0.66 0.33 1.32 0.66 2 1 C2.02692484 3.29160319 2.04636124 5.58329546 2.0625 7.875 C2.07410156 9.15117188 2.08570313 10.42734375 2.09765625 11.7421875 C2 15 2 15 1 17 C0.34 17 -0.32 17 -1 17 C-1.02691685 14.54159395 -1.04679802 12.08348118 -1.0625 9.625 C-1.07087891 8.92632812 -1.07925781 8.22765625 -1.08789062 7.5078125 C-1.11328125 2.2265625 -1.11328125 2.2265625 0 0 Z " fill="#21A7F4" transform="translate(41,78)"/>
<path d="M0 0 C0.33 0 0.66 0 1 0 C1.06058594 1.16917969 1.12117188 2.33835937 1.18359375 3.54296875 C1.26804034 5.09115614 1.35268625 6.63933268 1.4375 8.1875 C1.47681641 8.95642578 1.51613281 9.72535156 1.55664062 10.51757812 C1.77507034 14.43251075 2.08692108 18.17120688 3 22 C2.01 22.66 1.02 23.32 0 24 C0 16.08 0 8.16 0 0 Z " fill="#8665FD" transform="translate(118,113)"/>
<path d="M0 0 C0.66 0.33 1.32 0.66 2 1 C0.38050958 2.50594681 -1.24575974 4.00460668 -2.875 5.5 C-4.23238281 6.75296875 -4.23238281 6.75296875 -5.6171875 8.03125 C-8 10 -8 10 -10 10 C-10 9.01 -10 8.02 -10 7 C-6.96824281 4.17495352 -3.95850223 1.41375079 0 0 Z " fill="#119AFB" transform="translate(106,87)"/>
<path d="M0 0 C0.99 0 1.98 0 3 0 C3 1.98 3 3.96 3 6 C3.99 6.33 4.98 6.66 6 7 C6 7.66 6 8.32 6 9 C8.31 9 10.62 9 13 9 C13 9.33 13 9.66 13 10 C5.8329718 10.60737527 5.8329718 10.60737527 2 7.8125 C-0.13857753 4.80512535 -0.51264032 3.58848221 0 0 Z " fill="#AD44F2" transform="translate(41,135)"/>
<path d="M0 0 C0.33 0 0.66 0 1 0 C1 3.63 1 7.26 1 11 C1.99 11 2.98 11 4 11 C4.33 11.99 4.66 12.98 5 14 C4.67 14.66 4.34 15.32 4 16 C3.01 15.67 2.02 15.34 1 15 C-0.44207941 12.11584117 -0.09394887 9.58278472 -0.0625 6.375 C-0.05347656 5.18648437 -0.04445313 3.99796875 -0.03515625 2.7734375 C-0.02355469 1.85820313 -0.01195313 0.94296875 0 0 Z " fill="#8D5CF5" transform="translate(94,125)"/>
<path d="M0 0 C0.33 0 0.66 0 1 0 C1.4856661 7.40640809 1.4856661 7.40640809 -0.6875 10.0625 C-3.54680518 11.22167778 -5.09019806 10.88910615 -8 10 C-8 9.67 -8 9.34 -8 9 C-7.05125 8.814375 -6.1025 8.62875 -5.125 8.4375 C-1.61628301 7.26599195 -1.61628301 7.26599195 -0.625 3.375 C-0.41875 2.26125 -0.2125 1.1475 0 0 Z " fill="#AD3CF5" transform="translate(151,131)"/>
<path d="M0 0 C0.33 0 0.66 0 1 0 C1.16774403 2.77077198 1.33423936 5.54160927 1.5 8.3125 C1.54769531 9.09818359 1.59539062 9.88386719 1.64453125 10.69335938 C1.68964844 11.45068359 1.73476562 12.20800781 1.78125 12.98828125 C1.82314453 13.68477783 1.86503906 14.38127441 1.90820312 15.09887695 C2.09917603 19.05394605 1.88747206 20.22505588 0 24 C0 16.08 0 8.16 0 0 Z " fill="#9076FD" transform="translate(72,113)"/>
<path d="M0 0 C1.62463842 -0.05395478 3.24978541 -0.09277195 4.875 -0.125 C5.77992187 -0.14820312 6.68484375 -0.17140625 7.6171875 -0.1953125 C10 0 10 0 12 2 C8.37 2.33 4.74 2.66 1 3 C0.67 2.01 0.34 1.02 0 0 Z " fill="#16BCF7" transform="translate(107,83)"/>
<path d="M0 0 C1.875 1.5 1.875 1.5 3 3 C0.97905928 3 -1.04198 2.9787351 -3.0625 2.9375 C-5.93459792 2.78892965 -5.93459792 2.78892965 -8 4 C-8 3.01 -8 2.02 -8 1 C-5.20129973 -0.39935013 -3.09501208 -0.25265405 0 0 Z " fill="#3647DC" transform="translate(137,95)"/>
<path d="M0 0 C0.8971875 0.309375 0.8971875 0.309375 1.8125 0.625 C-3.33035714 5.05357143 -3.33035714 5.05357143 -7.1875 5.625 C-5.69046729 2.17030914 -4.27938051 -0.73360809 0 0 Z " fill="#0BC3EF" transform="translate(105.1875,84.375)"/>
<path d="M0 0 C0.99 0.66 1.98 1.32 3 2 C2.67 2.66 2.34 3.32 2 4 C0.1128125 3.7525 0.1128125 3.7525 -1.8125 3.5 C-4.26456585 3.17841759 -6.51650694 3 -9 3 C-5.95049269 0.28932684 -4.08318873 -0.52348573 0 0 Z " fill="#05D4E1" transform="translate(82,55)"/>
<path d="M0 0 C0.33 0 0.66 0 1 0 C1.32644414 4.16216275 1.40650982 6.36313462 -0.875 9.9375 C-3 12 -3 12 -5 12 C-4 10 -3 8 -2 6 C-1.34 6 -0.68 6 0 6 C0 4.02 0 2.04 0 0 Z " fill="#B245F8" transform="translate(59,132)"/>
<path d="M0 0 C1.670625 0.061875 1.670625 0.061875 3.375 0.125 C2.25 1.6875 2.25 1.6875 0.375 3.125 C-2.8125 2.8125 -2.8125 2.8125 -5.625 2.125 C-3.625 0.125 -3.625 0.125 0 0 Z " fill="#179BFA" transform="translate(113.625,84.875)"/>
</svg>
